<svg xmlns="http://www.w3.org/2000/svg" width="21.022" height="17.163" viewBox="0 0 21.022 17.163"><defs><style>.a{fill:#fff;}</style></defs><g transform="translate(1 -46.014)"><g transform="translate(-1 46.014)"><g transform="translate(0 0)"><path class="a" d="M263.884,246.134h5.6a.331.331,0,0,0,.35-.35v-3.152a.331.331,0,0,0-.35-.35h-5.6a.331.331,0,0,0-.35.35v3.152A.331.331,0,0,0,263.884,246.134Zm.35-3.152h4.9v2.452h-4.9Z" transform="translate(-252.676 -234.225)"/><path class="a" d="M33.484,208.847h2.8a.35.35,0,1,0,0-.7h-2.8a.35.35,0,1,0,0,.7Z" transform="translate(-31.733 -201.492)"/><path class="a" d="M135.884,208.847h2.8a.35.35,0,1,0,0-.7h-2.8a.35.35,0,1,0,0,.7Z" transform="translate(-129.93 -201.492)"/><path class="a" d="M33.484,242.981h4.553a.35.35,0,0,0,0-.7H33.484a.35.35,0,0,0,0,.7Z" transform="translate(-31.733 -234.225)"/><path class="a" d="M179.6,242.28H178.55a.35.35,0,1,0,0,.7H179.6a.35.35,0,0,0,0-.7Z" transform="translate(-170.844 -234.224)"/><path class="a" d="M19.7,49.727a1.3,1.3,0,0,0-.946-.525l-.841-.1V47.415a1.405,1.405,0,0,0-1.4-1.4H.4a1.405,1.405,0,0,0-1.4,1.4V58.624a1.406,1.406,0,0,0,1,1.343,1.363,1.363,0,0,0,1.238,1.389l16.182,1.821h.14a1.4,1.4,0,0,0,1.4-1.191l1.051-11.244A1.361,1.361,0,0,0,19.7,49.727Zm-20-1.261H17.214v2.1H-.3Zm.7-1.751H16.513a.7.7,0,0,1,.7.7v.35H-.3v-.35A.7.7,0,0,1,.4,46.715ZM-.3,58.623V51.268H17.214v7.356a.7.7,0,0,1-.7.7H.4A.7.7,0,0,1-.3,58.623ZM19.315,50.6,18.265,61.846a.707.707,0,0,1-.771.63L1.347,60.655a.708.708,0,0,1-.63-.63h15.8a1.405,1.405,0,0,0,1.4-1.4V49.762l.806.07a.6.6,0,0,1,.455.245A.709.709,0,0,1,19.315,50.6Z" transform="translate(1 -46.014)"/></g></g></g></svg>