<svg xmlns="http://www.w3.org/2000/svg" width="21.428" height="20" viewBox="0 0 21.428 20"><defs><style>.a{fill:#fff;}</style></defs><g transform="translate(-4.999 -21.721)"><path class="a" d="M166.912,24.067a1.146,1.146,0,0,0-.815-.339l-.946,0,.128-.131a1.1,1.1,0,1,0-1.547-1.553L162.17,23.6l-1.145-1.15a1.089,1.089,0,0,0-.775-.323h0a1.1,1.1,0,0,0-.979,1.591l-1.075,0h0a1.154,1.154,0,0,0-1.154,1.152l0,1.271a.256.256,0,0,0,.256.257h.379v4.572a1.155,1.155,0,0,0,1.154,1.154h6.635a1.155,1.155,0,0,0,1.154-1.154V26.391h.377a.256.256,0,0,0,.256-.256l0-1.253A1.146,1.146,0,0,0,166.912,24.067ZM164.093,22.4a.584.584,0,0,1,.822.83l-.476.487h-1.668Zm-4.257.4a.58.58,0,0,1,.412-.17h0a.581.581,0,0,1,.413.172l.907.911-1.664-.015-.071-.071a.584.584,0,0,1,0-.826Zm.937,8.8h-1.948a.642.642,0,0,1-.641-.641V26.391h2.592Zm0-5.726h-3.227l0-1.014a.641.641,0,0,1,.641-.64h0l2.583,0Zm2.279,5.726h-1.77l0-5.214h1.77Zm0-5.726h-1.77V24.231l1.77,0Zm3.044,5.085a.642.642,0,0,1-.641.641h-1.893l0-5.214H166.1Zm.633-5.085h-3.165V24.235l2.525,0a.641.641,0,0,1,.64.643Z" transform="translate(-145.548)"/><path class="a" d="M23.994,294.509l-.136.073a1.534,1.534,0,0,0-1.836-.477l-.006,0-.287.154a2,2,0,0,0-2.31-.221l-1.45.788H16.043a2.8,2.8,0,0,1-1.214-.278l-.264-.128a4.5,4.5,0,0,0-4.682.457l-.016.013-.637.568c-.232.207-2.632,1.467-4.091,2.214a.256.256,0,1,0,.233.456c.64-.327,3.848-1.975,4.2-2.287l.629-.56a3.989,3.989,0,0,1,4.143-.4l.264.128a3.32,3.32,0,0,0,1.437.329H18.6a1.65,1.65,0,0,1,1.626,1.379l-1.894-.086a11.087,11.087,0,0,0-2.014.093.256.256,0,1,0,.07.507,10.566,10.566,0,0,1,1.921-.089l2.184.1a.256.256,0,0,0,.268-.256c0-.053,0-.1-.006-.156l.317-.167,3.164-1.707a1.285,1.285,0,0,1,1.57.274l-6.425,4.411a4.435,4.435,0,0,1-2.723.379l-3.84-.707a1.681,1.681,0,0,0-1.228.167l-3.848,2.2a.256.256,0,1,0,.254.445l3.846-2.2a1.171,1.171,0,0,1,.86-.114l.016,0,3.849.709a4.951,4.951,0,0,0,3.059-.432.252.252,0,0,0,.031-.018l6.657-4.571a.256.256,0,0,0,.074-.343A1.8,1.8,0,0,0,23.994,294.509Zm-4.327-.019.006,0a1.491,1.491,0,0,1,1.562.043l-1.347.726a2.151,2.151,0,0,0-.908-.391Zm1.165,1.724-.18.1a2.158,2.158,0,0,0-.375-.682l1.979-1.067a1.012,1.012,0,0,1,1.14.27Z" transform="translate(0 -260.441)"/></g></svg>