<svg xmlns="http://www.w3.org/2000/svg" width="18.669" height="21.335" viewBox="0 0 18.669 21.335"><defs><style>.a{fill:#fff;}</style></defs><g transform="translate(-30)"><path class="a" d="M344.777,68.4v.095l-.057-.015C344.739,68.432,344.758,68.405,344.777,68.4Z" transform="translate(-300.731 -65.36)"/><path class="a" d="M38.223,7.29A4.667,4.667,0,1,0,42.89,2.622,4.672,4.672,0,0,0,38.223,7.29Zm8.623,0A3.956,3.956,0,1,1,42.89,3.334,3.96,3.96,0,0,1,46.846,7.29Zm-3.956-2.4a.356.356,0,0,1,.356.356V5.4A1.069,1.069,0,0,1,43.957,6.4a.356.356,0,0,1-.711,0,.356.356,0,1,0-.711,0v.144a.354.354,0,0,0,.25.339l.424.133a1.062,1.062,0,0,1,.749,1.018v.144a1.069,1.069,0,0,1-.845,1.043v.112a.356.356,0,1,1-.711,0V9.126a1.068,1.068,0,0,1-.578-.948.356.356,0,1,1,.711,0,.356.356,0,1,0,.711,0V8.035A.354.354,0,0,0,43,7.7l-.424-.133a1.062,1.062,0,0,1-.749-1.018V6.4A1.069,1.069,0,0,1,42.535,5.4v-.15A.356.356,0,0,1,42.89,4.889Zm5.778,9.423v4.534a2.492,2.492,0,0,1-2.489,2.489H32.489A2.492,2.492,0,0,1,30,18.846V1.422A1.424,1.424,0,0,1,31.422,0H42.979A1.424,1.424,0,0,1,44.4,1.422a.356.356,0,1,1-.711,0,.712.712,0,0,0-.711-.711H31.422a.712.712,0,0,0-.711.711V18.846a1.78,1.78,0,0,0,1.778,1.778H44.44a2.481,2.481,0,0,1-.75-1.778V13.29a.356.356,0,1,1,.711,0v5.556a1.778,1.778,0,1,0,3.556,0V14.313a.712.712,0,0,0-.711-.711H45.735a.356.356,0,1,1,0-.711h1.511A1.424,1.424,0,0,1,48.669,14.313ZM33.111,9.557a.356.356,0,0,1,.356-.356H36.49a.356.356,0,0,1,0,.711H33.467A.356.356,0,0,1,33.111,9.557Zm0-4a.356.356,0,0,1,.356-.356H36.49a.356.356,0,0,1,0,.711H33.467A.356.356,0,0,1,33.111,5.556Zm8.179,8a.356.356,0,0,1-.356.356H33.467a.356.356,0,0,1,0-.711h7.467A.356.356,0,0,1,41.29,13.557Zm0,3.734a.356.356,0,0,1-.356.356H33.467a.356.356,0,0,1,0-.711h7.467A.356.356,0,0,1,41.29,17.291Z"/></g></svg>