<svg xmlns="http://www.w3.org/2000/svg" width="19.947" height="20.669" viewBox="0 0 19.947 20.669"><defs><style>.a{fill:#fff;}</style></defs><g transform="translate(3.445)"><path class="a" d="M8.306,8.612a4.306,4.306,0,1,1,4.306-4.306A4.311,4.311,0,0,1,8.306,8.612Zm0-7.751a3.445,3.445,0,1,0,3.445,3.445A3.448,3.448,0,0,0,8.306.861Z" transform="translate(-4)"/></g><g transform="translate(0 10.335)"><path class="a" d="M7.32,19.751H.431A.431.431,0,0,1,0,19.32V15.876A3.88,3.88,0,0,1,3.876,12H9.043a.431.431,0,0,1,0,.861H3.876A3.018,3.018,0,0,0,.861,15.876V18.89H7.32a.431.431,0,1,1,0,.861Z" transform="translate(0 -12)"/></g><g transform="translate(9.334 9.474)"><g transform="translate(3.154 3.444)"><path class="a" d="M16.653,19.306a2.153,2.153,0,1,1,2.153-2.153A2.156,2.156,0,0,1,16.653,19.306Zm0-3.445a1.292,1.292,0,1,0,1.292,1.292A1.293,1.293,0,0,0,16.653,15.861Z" transform="translate(-14.5 -15)"/></g><path class="a" d="M16.831,22.2H15.458a.858.858,0,0,1-.857-.776l-.109-1.095a4.044,4.044,0,0,1-.745-.433l-1.006.454a.857.857,0,0,1-1.1-.355L10.954,18.8a.859.859,0,0,1,.243-1.13l.886-.637a3.27,3.27,0,0,1,0-.873l-.886-.637a.859.859,0,0,1-.243-1.13l.686-1.189a.858.858,0,0,1,1.1-.355l1.006.454a4.044,4.044,0,0,1,.745-.433l.109-1.095A.858.858,0,0,1,15.458,11h1.374a.858.858,0,0,1,.857.776l.109,1.095a4.036,4.036,0,0,1,.745.433l1.006-.454a.86.86,0,0,1,1.1.355l.686,1.189a.859.859,0,0,1-.243,1.13l-.886.637a3.27,3.27,0,0,1,0,.873l.886.637a.859.859,0,0,1,.243,1.13l-.686,1.188a.858.858,0,0,1-1.1.355l-1.006-.454a4.044,4.044,0,0,1-.745.433l-.11,1.1a.858.858,0,0,1-.857.775Zm-3.025-3.234a.431.431,0,0,1,.276.1,3.207,3.207,0,0,0,.959.557.431.431,0,0,1,.281.362l.136,1.353h1.374l.135-1.353a.431.431,0,0,1,.281-.362,3.226,3.226,0,0,0,.959-.557A.43.43,0,0,1,18.66,19l1.244.562.686-1.189-1.1-.791a.433.433,0,0,1-.173-.425,2.728,2.728,0,0,0,0-1.116.432.432,0,0,1,.173-.425l1.1-.791L19.9,13.637,18.66,14.2a.431.431,0,0,1-.454-.062,3.176,3.176,0,0,0-.959-.557.431.431,0,0,1-.281-.362l-.135-1.356H15.458l-.135,1.353a.431.431,0,0,1-.281.362,3.226,3.226,0,0,0-.959.557.428.428,0,0,1-.453.062l-1.244-.562L11.7,14.823l1.1.791a.433.433,0,0,1,.173.425,2.728,2.728,0,0,0,0,1.116.432.432,0,0,1-.173.425l-1.1.791.686,1.189L13.63,19A.45.45,0,0,1,13.807,18.962Z" transform="translate(-10.838 -11.001)"/></g></svg>