<svg xmlns="http://www.w3.org/2000/svg" width="21.342" height="21.336" viewBox="0 0 21.342 21.336"><defs><style>.a{fill:#fff;}</style></defs><g transform="translate(0 -0.068)"><g transform="translate(0 0.068)"><g transform="translate(0 0)"><path class="a" d="M18.216,3.189a10.67,10.67,0,1,0,0,15.09A10.615,10.615,0,0,0,18.216,3.189ZM3.8,17.637a9.115,9.115,0,0,1,12.859-.876,8.636,8.636,0,0,1,.876.876A9.729,9.729,0,0,1,3.8,17.637Zm14.368-.694a10.045,10.045,0,0,0-14.182-.815,9.617,9.617,0,0,0-.815.815A9.685,9.685,0,0,1,.946,11.2H2.53a.466.466,0,1,0,0-.932H.946a9.706,9.706,0,0,1,2.52-6.08L4.575,5.3a.465.465,0,1,0,.657-.657L4.123,3.534a9.68,9.68,0,0,1,6.08-2.52V2.6a.466.466,0,0,0,.932,0V1.014a9.706,9.706,0,0,1,6.08,2.52L16.106,4.643a.465.465,0,1,0,.652.662l0,0,1.109-1.109a9.68,9.68,0,0,1,2.52,6.08H18.808a.466.466,0,1,0,0,.932H20.4A9.685,9.685,0,0,1,18.17,16.942Z" transform="translate(0 -0.068)"/></g></g><g transform="translate(9.063 4.489)"><path class="a" d="M197.663,101.589a1.6,1.6,0,0,0-1.072-1.072V95.435a.466.466,0,0,0-.932,0v5.083a1.606,1.606,0,1,0,2,1.072Zm-1.537,1.137a.673.673,0,1,1,.676-.671A.676.676,0,0,1,196.126,102.726Z" transform="translate(-194.519 -94.969)"/></g></g></svg>