<svg xmlns="http://www.w3.org/2000/svg" width="21.338" height="21.335" viewBox="0 0 21.338 21.335"><defs><style>.a{fill:#fff;}</style></defs><g transform="translate(-10.031 -10.031)"><path class="a" d="M225.507,236.177a10.624,10.624,0,0,1-6.107-1.929l.494-.705a9.8,9.8,0,0,0,13.649-13.649l.705-.494a10.672,10.672,0,0,1-8.741,16.777Z" transform="translate(-204.81 -204.81)"/><path class="a" d="M11.962,26.808A10.661,10.661,0,0,1,26.808,11.962l-.492.7A9.8,9.8,0,0,0,12.667,26.311Z" transform="translate(0)"/><path class="a" d="M673.539,20.98l-.039-.858,1.565-.074-.627-1.4.786-.353,1.141,2.547Z" transform="translate(-649.024 -8.089)"/><path class="a" d="M194,859.23l-1.2-2.565,2.787-.166.052.86-1.526.087.66,1.422Z" transform="translate(-178.79 -828.04)"/><path class="a" d="M236.839,191.751h-5.632v-3.74h.86v2.88h3.912v-4.163h1.994l-3.952-4.265-3.956,4.278h1.685v.86H228.1l5.922-6.4,5.92,6.386h-3.1Z" transform="translate(-213.321 -167.442)"/><path class="a" d="M382.9,700.1H388v.86h-5.1Z" transform="translate(-364.751 -675.045)"/><path class="a" d="M382.9,770.3H388v.86h-5.1Z" transform="translate(-364.751 -743.716)"/></g></svg>