<svg xmlns="http://www.w3.org/2000/svg" width="18.449" height="21.96" viewBox="0 0 18.449 21.96"><defs><style>.a{fill:#fff;}</style></defs><g transform="translate(0 0.001)"><path class="a" d="M247.516,39.069a.321.321,0,0,0-.464.1l-.007.011a.327.327,0,0,1-.455.08.322.322,0,0,0-.448.079l-.469.67a.322.322,0,1,0,.527.369l.316-.451a.975.975,0,0,0,.862-.172l.474.332a.322.322,0,1,0,.369-.527Zm0,0" transform="translate(-235.081 -37.338)"/><path class="a" d="M356.253,94.988l-.316.451a.322.322,0,1,0,.527.369l.469-.67a.322.322,0,0,0-.079-.448.327.327,0,0,1-.08-.455l.008-.01a.322.322,0,0,0-.061-.471l-.706-.494a.322.322,0,0,0-.369.527l.474.332A.974.974,0,0,0,356.253,94.988Zm0,0" transform="translate(-340.26 -89.206)"/><path class="a" d="M306.447,288.983a.544.544,0,0,1,.4.172.322.322,0,0,0,.468-.442,1.193,1.193,0,1,0-.867,2.012,1.184,1.184,0,0,0,.843-.349.322.322,0,1,0-.455-.455.549.549,0,1,1-.389-.938Zm0,0" transform="translate(-292.161 -275.974)"/><path class="a" d="M17.15,11.293V8.716A1.588,1.588,0,0,0,15.563,7.13H13.856a2.107,2.107,0,0,0-.776-2.037,1.987,1.987,0,0,0-1.836-.178A3.535,3.535,0,0,0,9.559,6.244a3.86,3.86,0,0,0-.466.886H7L11.5.7l6.247,4.374L16.8,6.434a.322.322,0,1,0,.527.369L18.36,5.322a.494.494,0,0,0-.121-.688L11.747.088a.493.493,0,0,0-.688.121L9.571,2.336V1.054A.494.494,0,0,0,9.077.56H1.361a.494.494,0,0,0-.494.494V2.815a.322.322,0,1,0,.643,0V1.2h.932V7.13H1.587l-.076,0V4.1a.322.322,0,1,0-.643,0V7.3A1.588,1.588,0,0,0,0,8.716V18.4a1.588,1.588,0,0,0,1.586,1.586h2.4a.322.322,0,1,0,0-.643h-2.4A.944.944,0,0,1,.644,18.4V8.716a.945.945,0,0,1,.635-.891L1.3,7.817a.939.939,0,0,1,.284-.044H15.563a.944.944,0,0,1,.943.943v2.532H14.2a2.31,2.31,0,1,0,0,4.621h2.3V18.4a.944.944,0,0,1-.943.943H13.105a.322.322,0,1,0,0,.643h2.458A1.588,1.588,0,0,0,17.15,18.4V15.825a1.655,1.655,0,0,0,1.271-1.608V12.9a1.656,1.656,0,0,0-1.271-1.608ZM10.086,6.614C10.82,5.566,12,5.12,12.712,5.62a1.512,1.512,0,0,1,.5,1.51H9.789a3.287,3.287,0,0,1,.3-.516ZM8.927,3.255,6.214,7.13H4.629V1.2h4.3ZM3.086,1.2h.9V7.13h-.9ZM17.777,14.217a1.01,1.01,0,0,1-1.009,1.009H14.2a1.667,1.667,0,1,1,0-3.334h2.564A1.01,1.01,0,0,1,17.777,12.9Zm0,0"/><path class="a" d="M113.195,330.777a3.886,3.886,0,1,0,3.886,3.886A3.891,3.891,0,0,0,113.195,330.777Zm0,7.129a3.243,3.243,0,1,1,3.243-3.243A3.247,3.247,0,0,1,113.195,337.906Zm0,0" transform="translate(-104.62 -316.591)"/><path class="a" d="M173.172,373.2h-.549a.293.293,0,1,1,0-.586h1.05a.322.322,0,1,0,0-.643h-.395V371.7a.322.322,0,1,0-.643,0v.272h-.012a.937.937,0,1,0,0,1.873h.549a.293.293,0,0,1,0,.586h-1.05a.322.322,0,0,0,0,.643h.513v.272a.322.322,0,1,0,.643,0v-.278a.936.936,0,0,0-.106-1.867Zm0,0" transform="translate(-164.323 -355.452)"/></g></svg>