<svg xmlns="http://www.w3.org/2000/svg" width="38.382" height="39.622" viewBox="0 0 38.382 39.622"><defs><style>.a{fill:#fff;}</style></defs><g transform="translate(-8.008 0)"><g transform="translate(8.008 0)"><g transform="translate(0 0)"><path class="a" d="M45.121,23.208h-.593V17.867a2.508,2.508,0,0,0-1.064-2.049v-.727a1.915,1.915,0,0,0-1.913-1.913h-.443L42.8,10.692a1.831,1.831,0,0,0-.481-2.541L30.827.318A1.829,1.829,0,0,0,28.287.8L18.366,15.358H15.6l.666-6.743a.2.2,0,0,1,.126-.168,4.292,4.292,0,0,0,2.094-1.7.2.2,0,0,1,.188-.088l4.33.428a.565.565,0,1,0,.111-1.124l-4.33-.428a1.321,1.321,0,0,0-1.251.606A3.155,3.155,0,0,1,16,7.391,1.32,1.32,0,0,0,15.147,8.5l-.677,6.854h-.72L14.8,4.694a.7.7,0,0,1,.765-.627l8.75.864a.565.565,0,0,0,.111-1.124l-8.75-.864a1.831,1.831,0,0,0-2,1.64l-.849,8.6H11.385a1.915,1.915,0,0,0-1.913,1.913v.5a2.512,2.512,0,0,0-1.464,2.28V37.113a2.512,2.512,0,0,0,2.509,2.509h31.5a2.512,2.512,0,0,0,2.509-2.509V31.772h.593A1.271,1.271,0,0,0,46.39,30.5V24.477A1.271,1.271,0,0,0,45.121,23.208Zm-3.569-8.9h0a.785.785,0,0,1,.784.784v.288a2.516,2.516,0,0,0-.317-.021h-2.4l.716-1.051ZM29.22,1.436a.7.7,0,0,1,.448-.293A.71.71,0,0,1,29.8,1.13a.7.7,0,0,1,.392.122L41.686,9.084a.7.7,0,0,1,.184.972l-3.613,5.3H37.39l1.771-2.6a1.32,1.32,0,0,0,.062-1.4,3.155,3.155,0,0,1-.378-1.948,1.32,1.32,0,0,0-.571-1.267L32.315,4.083a1.32,1.32,0,0,0-1.388-.068,3.156,3.156,0,0,1-1.951.36,1.337,1.337,0,0,0-1.281.569L20.6,15.358h-.867Zm.249,9.588a4.659,4.659,0,0,0-4.641,4.335H21.965l6.663-9.777h0a.2.2,0,0,1,.165-.089l.026,0A4.293,4.293,0,0,0,31.472,5a.2.2,0,0,1,.207.013l5.959,4.061a.2.2,0,0,1,.087.188,4.291,4.291,0,0,0,.514,2.649.2.2,0,0,1-.011.209l-2.2,3.235H34.11A4.659,4.659,0,0,0,29.468,11.023Zm3.509,4.335H25.959a3.524,3.524,0,0,1,7.019,0ZM10.6,15.091a.785.785,0,0,1,.784-.784h1.334l-.1,1.051H10.6ZM9.137,17.867a1.382,1.382,0,0,1,1.38-1.38h31.5a1.382,1.382,0,0,1,1.38,1.38v1.567H9.137ZM43.4,37.113a1.382,1.382,0,0,1-1.38,1.38h-31.5a1.382,1.382,0,0,1-1.38-1.38V35.546h3.045a.565.565,0,0,0,0-1.129H9.137V20.563H43.4v2.645H38.031a4.287,4.287,0,0,0-3.852,2.413l-.007.014-.017.037a4.259,4.259,0,0,0-.213.546v0a4.283,4.283,0,0,0,4.09,5.552H43.4v2.645H15.8a.565.565,0,1,0,0,1.129H43.4Zm1.862-6.61a.14.14,0,0,1-.14.14h-7.09a3.156,3.156,0,0,1-2.772-1.651q-.036-.067-.07-.136-.067-.138-.12-.283a3.156,3.156,0,0,1,0-2.166q.053-.145.12-.283.033-.069.07-.136a3.156,3.156,0,0,1,2.772-1.651h7.09a.14.14,0,0,1,.14.14Z" transform="translate(-8.008 0)"/></g></g><g transform="translate(35.873 25.199)"><g transform="translate(0)"><path class="a" d="M370.372,325.627a2.291,2.291,0,1,0,2.291,2.291A2.293,2.293,0,0,0,370.372,325.627Zm0,3.452a1.161,1.161,0,1,1,1.162-1.161A1.163,1.163,0,0,1,370.372,329.079Z" transform="translate(-368.081 -325.627)"/></g></g></g></svg>